<svg id="Calque_1" data-name="Calque 1" xmlns="http://www.w3.org/2000/svg" viewBox="0 0 1366 768"><defs><style>.cls-1{fill:#bc0e98;}.cls-2{fill:none;stroke:#bc0e98;stroke-linecap:round;stroke-miterlimit:10;stroke-width:19.08px;}</style></defs><path class="cls-1" d="M555.47,411.67l56.68-75.58a56.27,56.27,0,0,0,7.66-13.47,35.78,35.78,0,0,0,2.74-13v-.22q0-9.74-5.7-15.09t-16.21-5.37q-10,0-16.1,5.87t-7.49,16.6v.11H553.46v-.11q2-14,8.21-23.87a41.74,41.74,0,0,1,16.05-15.09,47.77,47.77,0,0,1,22.69-5.2q14.54,0,24.82,5a35,35,0,0,1,15.66,14.48q5.36,9.51,5.36,22.92v.11a50.4,50.4,0,0,1-3.58,18,77.28,77.28,0,0,1-9.95,18.12l-47.06,63.95h61.49v21.69H555.47Z"/><path class="cls-1" d="M680.92,427.93a34.85,34.85,0,0,1-13.69-16.15q-4.69-10.62-4.7-25.49v-25.6q0-15,4.58-25.61a34.75,34.75,0,0,1,13.36-16.15q8.79-5.54,21.08-5.54a34.72,34.72,0,0,1,18.84,5.37,39.68,39.68,0,0,1,13.81,15.09l-2.35,23.71a27.52,27.52,0,0,0-2.69-12.64,18.24,18.24,0,0,0-7.77-8A25.7,25.7,0,0,0,709,334.19q-11.29,0-17.5,7T685.34,361v25.27q0,12.63,6.2,19.51t17.5,6.87a24.92,24.92,0,0,0,12.35-2.85,18.76,18.76,0,0,0,7.77-8.21,28.49,28.49,0,0,0,2.69-12.86l1.56,24.48a33.08,33.08,0,0,1-11.34,14.43q-7.89,5.8-19.4,5.81Q689.92,433.47,680.92,427.93Zm50.93-159h22.81V431.46H731.85Z"/><path class="cls-1" d="M797.88,427.1a40.46,40.46,0,0,1-17.39-17.72q-6-11.69-6-28.23V368.06q0-17.21,5.76-29.4A41.24,41.24,0,0,1,797,320.1q11-6.37,26.39-6.37,14.53,0,24.82,7.27t15.71,21q5.42,13.75,5.42,33v7.6H791.06V364.26h56.57q-1-14.19-7.32-22.08t-16.94-7.88q-13,0-20.07,8.5t-7.1,24v14.76q0,14.43,7.6,22.14t21.58,7.71a36,36,0,0,0,13.75-2.79,39.5,39.5,0,0,0,12.19-7.83l15,15A63.19,63.19,0,0,1,847,428.61a55.27,55.27,0,0,1-21.58,4.52Q809.29,433.13,797.88,427.1Z"/><path class="cls-1" d="M880.23,315.41h61.84v19.45H880.23Zm12.3-15.77q0-15.42,7.1-23.09t21.86-7.65h9.13v21.69h-8.69a5.58,5.58,0,0,0-4.92,2.46,11.14,11.14,0,0,0-1.67,6.37v132H892.53Z"/><path class="cls-1" d="M942.19,268.9H965v22.8H942.19Zm0,46.51H965v116H942.19Z"/><path class="cls-2" d="M496.1,385.9a93.47,93.47,0,0,1-163.87-5"/><path class="cls-1" d="M511.53,363.84a.31.31,0,0,1,.44.3l-1.14,16.58-1.18,17.12-14.24-9.58-14.24-9.58,15.42-7.54Z"/><path class="cls-2" d="M336.65,310.69a93.47,93.47,0,0,1,163.87,5"/><path class="cls-1" d="M321.23,332.74a.31.31,0,0,1-.45-.3l1.15-16.58,1.18-17.12,14.23,9.58,14.24,9.58-15.42,7.54Z"/></svg>